<svg width="21" height="21" viewBox="0 0 21 21" fill="none" xmlns="http://www.w3.org/2000/svg">
<path d="M6.9989 11.375V3.9375C6.9989 3.5894 7.13718 3.25556 7.38332 3.00942C7.62947 2.76328 7.9633 2.625 8.3114 2.625C8.6595 2.625 8.99334 2.76328 9.23948 3.00942C9.48562 3.25556 9.6239 3.5894 9.6239 3.9375V10.5M9.6239 10.0625V8.3125C9.6239 7.9644 9.76218 7.63056 10.0083 7.38442C10.2545 7.13828 10.5883 7 10.9364 7C11.2845 7 11.6183 7.13828 11.8645 7.38442C12.1106 7.63056 12.2489 7.9644 12.2489 8.3125V10.5M12.2489 9.1875C12.2489 8.8394 12.3872 8.50556 12.6333 8.25942C12.8795 8.01328 13.2133 7.875 13.5614 7.875C13.9095 7.875 14.2433 8.01328 14.4895 8.25942C14.7356 8.50556 14.8739 8.8394 14.8739 9.1875V10.5" stroke="#EDA5FF" stroke-width="1.5" stroke-linecap="round" stroke-linejoin="round"/>
<path d="M14.8746 10.0621C14.8746 9.71404 15.0129 9.3802 15.2591 9.13406C15.5052 8.88792 15.8391 8.74964 16.1871 8.74964C16.5352 8.74964 16.8691 8.88792 17.1152 9.13406C17.3614 9.3802 17.4996 9.71404 17.4996 10.0621V13.9996C17.4996 15.392 16.9465 16.7274 15.962 17.712C14.9774 18.6965 13.642 19.2496 12.2496 19.2496H10.4996H10.6816C9.81219 19.2498 8.95631 19.034 8.19086 18.6216C7.42541 18.2093 6.77435 17.6133 6.29615 16.8871L6.12465 16.6246C5.85165 16.2055 4.89352 14.5351 3.2494 11.6126C3.08179 11.3147 3.03702 10.9632 3.12461 10.6328C3.21219 10.3024 3.42523 10.0192 3.7184 9.84339C4.03067 9.65602 4.39659 9.57837 4.75804 9.62275C5.11949 9.66714 5.45575 9.83103 5.7134 10.0884L6.99965 11.3746M2.22302 4.89439C2.89451 4.40349 3.61602 3.98495 4.37552 3.64577M12.2496 3.02539C13.3891 3.33116 14.4761 3.80665 15.474 4.43589" stroke="#EDA5FF" stroke-width="1.5" stroke-linecap="round" stroke-linejoin="round"/>
</svg>
